<svg width="200" height="200" viewBox="0 0 200 200" xmlns="http://www.w3.org/2000/svg">
  <!-- Background Rectangle (Command Line) -->
  <rect x="10" y="10" width="180" height="100" fill="#000000" stroke="#FFFFFF" stroke-width="2" rx="10" ry="10" />

  <!-- Command Line Text -->
  <text x="20" y="40" font-family="Arial" font-size="20" fill="#FFFFFF">></text>

  <!-- Kubernetes Logo Inside Command Line -->
  <svg x="50" y="30" width="100" height="100" viewBox="0 -10.44 722.846 722.846">
    <path d="M358.986 10.06a46.725 46.342 0 00-17.906 4.531L96.736 131.341a46.725 46.342 0 00-25.28 31.438l-60.282 262.25a46.725 46.342 0 006.344 35.531 46.725 46.342 0 002.656 3.688l169.125 210.28a46.725 46.342 0 0036.531 17.438l271.219-.062a46.725 46.342 0 0036.531-17.406l169.063-210.313a46.725 46.342 0 009.03-39.219L651.3 162.716a46.725 46.342 0 00-25.281-31.437L381.643 14.59a46.725 46.342 0 00-22.657-4.53z" fill="#326ce5"/>
  </svg>

  <!-- App Name -->
  <text x="100" y="180" font-family="Arial" font-size="24" fill="#326ce5" text-anchor="middle" alignment-baseline="middle">
    Command Suggester
  </text>
</svg>
